<mxfile host="Electron" modified="2024-07-25T02:23:35.263Z" agent="Mozilla/5.0 (Windows NT 10.0; Win64; x64) AppleWebKit/537.36 (KHTML, like Gecko) draw.io/24.2.5 Chrome/120.0.6099.109 Electron/28.1.0 Safari/537.36" etag="-ZIDEfFlXaXgI134cVDk" version="24.2.5" type="device">
  <diagram name="Page-1" id="n0SlswrXR7bPwc68M5vA">
    <mxGraphModel dx="915" dy="998" grid="1" gridSize="10" guides="1" tooltips="1" connect="1" arrows="1" fold="1" page="1" pageScale="1" pageWidth="850" pageHeight="1100" math="0" shadow="0">
      <root>
        <mxCell id="0" />
        <mxCell id="1" parent="0" />
        <mxCell id="tIYy_J4YZG42mCBuG7aG-5" value="" style="shape=image;verticalLabelPosition=bottom;labelBackgroundColor=default;verticalAlign=top;aspect=fixed;imageAspect=0;image=data:image/png,iVBORw0KGgoAAAANSUhEUgAAAWYAAAG2CAYAAABMGCw5AAAgAElEQVR4Ae2dva4cR3P33zvZzICCJ6EIg8ATPGJAAYZBWJEIGCAoAT6gMwUUbIYHpBLrCsyAJngJh7wGBQTTA97OvKjqru6q6o+Z/Zjd3t1/cDB7dmb6o+rfv67pma35f5vNZsIfbAANQAPQwDga+H9wxjjOgC/gC2gAGiANAMy4YsAVEzQADQymAYB5MIcgYkLEBA1AAwAzwIxoCRqABgbTwNBg/u7m6/Tbu6/T40eYQRFFQQPQwPVo4PrA/NPn6bc/P07fDTZDYtBdz6CDr+HrOQ0sAvODn19NtzdPLuNypwfmH19eTj8x8VyGXuHHq/TjLJif3NxOt7cvpydJIL9Mj/+k5YW309N336bf+O/z9NDs/zY9/WkzPXwt++1yRFiikH3hWJlB/L5yKYPqz+f+9vqtc5zb/y627dHH6Xlqrzpf9nP7H0zPfr+dbn9/Nj1I/cHsLr7BFlqABo6jgQ6YW5AS8GXYMoATIGX/t+n5zS8MTbOfIlYNQ/4/l2UczzC1+0xZm1CX1LOJ/5ewVsbsRcwRxuVkpM4HsN1ECNsYzUIf0McBNNAA85Pp5e1t47I+wJAi4iRIA7sI5gTqzbRJ+z1IQxkE2wxXVW4BZorSdXSuy46f/X5vpNQWVY8/ZrOZePnm9tX07Pv+cckGlTKwD7aDBqCBXTRQBzOttW4L5gTECrgTtOr7FoO5tRwRb+bxMsjcjb2twNyanCC2XcSGc6AbaGCZBupgZpD2lzLmImaz34HZRsf1KJod6CNm/t9FzKlsFz3r7/XnBWDGUsYy8WCQwU7QwDoa6IA5VFhCyke94SZghq3fbxsebu4puBIoU7Rtj914MM+uIfu2uPII0EWZ9hjuL27+5WUqPanhM+wCDRxFA7NgphnRPi4XwBuexghPN2QoE+T6YKby7JMX9uaemYGrEJ2rXz8tQu1Tk0AUla1f7cfjckcRnfExBjpsDg0UGlgEZjuQ5sFrj7cR6Vb75pYu4NDCoVvZF/aD/aCBITUwNJj50bi5m3kQ1pDCwgSxR0ACTV+9pgcDs1+mUMsMEOvVixWwB+yvRQM7gBniuBZxoJ/QOjRwGg0AzIjEEYlDA9DAYBoowPzDDz/ASYM5CVHLaaIW2B12P5UGAGZAGBMxNAANDKYBgHkwh5xqhka9iA6hgXE0ADADzIiWoAFoYDANAMyDOQRRyzhRC3wBX5xKAwAzwIxoCRqABgbTAMA8mENONUOjXkSH0MA4GgCYAWZES9AANDCYBgDmwRyCqGWcqAW+gC9OpQGAGWBGtAQNQAODaQBgHswhp5qhUS+iQ2hgHA0AzAAzoiVoABoYTAMA82AOQdQyTtQCX8AXp9IAwAwwI1qCBqCBwTQAMA/mkFPN0KgX0SE0MI4GAGaAGdESNAANDKYBgHkwhyBqGSdqgS/gi1NpAGAGmBEtQQPQwGAaAJgHc8ipZmjUi+gQGhhHAwAzwIxoCRqABgbTAMA8mEMQtYwTtcAX8MWpNAAwA8yIlqABaGAwDQDMgznkVDM06kV0CA2Mo4GzB/PD19+m5ze/LJvxH32cnr/7Nv3Gf5+nh6NBWdr3+u2y/ozW/pO258H07Pfb6eWP6wwu6Gwdu2IyqNv1usAs4GAAajD/Mj3+sw74rQaklL/r9sRgfvPpfrq/v5/u/qiLpT6IXkwf/grn0bn3n95sNam8eP+F6+Rz7++mN7va7seX0+3vz6YHu54/c95OOoDOttJCXV/baPFyjl0fzN8/m17dvpyezAh/V6ccZsBspu9uvk6//flx+s608+309N3X6fGjM3c4QevmSX+Q/HE33f91N939tR2YGeYJxm+mu/v76cv7F/26xMZUp4Ixl/XXh+mF7DfbJ9PL21fTs+/rvnhys160TNqEzup21+P2wc+vplc/P1jme+Pb+bJ1PdfweV0wExBu9YChyPTr9Pjmc1hOeP2WBU9LC09/ys6hQRCWG2jrwRii27zfRbo/xbJ5ucKfG+soIpnNtOHv3PFUloE1gTq3zSyhpDLVMeZc324dsYeBL30y5UYB88Sh6tb2on10jrab3r/ZhMv8dkQZgHr3R4h+F0fMv36Yvtx/mT78mn3HEXATrvm4zSbUZSBeKY8HIU/ut+1BX0z+F6wz0STrLWrRLH2dUmc0ed7OBwGA8uzktRqYafa8LSKcKBoCVhQWAYWhE8XlI9cApAwxho8SoolkPFwZ0vncNNMmiGpQhLZpKJqyN35/AHACYBooAne7X/cxtaMiUFtnbJ/vB/8v9cRo/12eoLwNpT6KKm8rVy856t0SzBxlqwiXI2Ba1liyJEGTgYZ6mByKpZRictc+C5+pXzZSu2Cdse8JyFHXTvOn19lcEFD6T/SJbbbNKmBuAWAT4cYwU3DMYrIwC44Kg8yfI07UIKNyNFhNfRqCqm4ph7YWaNSWDD+OqE0EHI+XSSKCOYHaXf5y2TKYdFvcZ90f3X/bL3tpne0XHdvoH5VXTJgcpQpIdwQzlyFA9sDNYtO23mzkuFCnAJkmCYmii7Y6W4Xyakscdc1kO52xztyk7DU+is7aDGjpAd/r8bECmOPlTCUyMyJS8LADRsGQB2J9kEknNMjosywH6K2GJZ+n6pZy8vexfhoAGsQpUnF1GDBXonMFE90+D1pph+5P+E7135UlZWT7LQWzXG56EPv/ZwZLLUI2oO+dX4uQdf0x8iquumyZDO9i/VzZTPk628lNuuekM69LpQmtIdG/aET2yXZtnQUw+ysZ6ztpC7alXVYAc6ikHu0sGTB2vXmzUdGNGmTiTC0w/Vn2V7eVcsJxoX0k5qKsuQHRLLM0uvSpNmiKeoslFCovt5PanYET62q0pYhiUqSrnqqgJyvob8k6MZ+vlyM208Yvb1TAEWwdICzRcfhOomhls+5SRusRuQvW2ZwOjb3D2DmuzrCUEbSsNGx8suz71cDMjSsG1dyAiTfBVKTK0En/K0gLkNTa6oajWh9xVwzRABe1OdT3dXqulzHYsG2Rc187ZZaOsmDV+0swxzbpZRDuZ47Ol4CZoTz7OJmOWLXdwvf3Zk2Y9sfvE8RrsI2wrjxKFx6Vy2Bv3jhs3fwjfVX7dME62wrMx9ZZhHJxBaO1hM96vLc+rwtmApq5Yz4/YKihBCe5FEs3OWTWYSjF/a/fMkhNRKD3ux+SMMDUkw2hjgw4NhID9ptdxpC6Y/Se26ai+y6YQ7/1eb/JEoiCvtmvJxyZMFLb7eQzC2YC2KLBsi2YFZxjpG0j4DgIZckjPVaXB6d5jjkBPu/Pwi3XkmmysTf95LwL1lkXzKfVGV0l1/0hfsE267lvi/XBnKDWb8jSBuM42JE1YCZ82ATj4rI0ADBj4ph9phKD/rIGPfw5vj8BZoAZYIYGoIHBNAAwD+YQRDPjRzPwEXy0tgYAZoAZ0RI0AA0MpgGAeTCHrD0To3xEe9DA+BoAmAFmREvQADQwmAYA5sEcgmhm/GgGPoKP1tYAwAwwI1qCBqCBwTQAMO/sEPXrsp3LOKfIIycdolwa9hd+cV/3l3vn1Nct23qpP3bp/pp1SxtdxRg5nE0A5iSYys9Z3c+i7eXLdYE552yuiW89MOs0oNb+tXac5rv2T8NP0562nUK+F//T/yL7oowJgPlkVxLrg/nsookAXJN/Q4Rqth7MlMCl/eqj9mAZbfDW2tPKoVE79rDfDQHmroYph8d6r05bRzc2GVizjgLM59jXw+qxaSvDhv3rXBfMRXa50OBqMiFJ6iNJWlgUOVlRNoib9VPmuc3E2eX0/5x0KCf8oXoJuDpJUhkt9MDs6navxNo0+pvaLsl8agl/fArOlPCHoPhl+vCe3o8XXnbK0evSl6ZSnZ8+xBemfpk+/EGvg5K0nrVscLXvQkRce+WUSUKU2izCzECXNvsMdeZ81Sf/Pfc99j/Zk5Ptq5Slun7u95tJl6OXX+h7+j+3q/Guwxmf1vNB+0RcQccy2UsGQT0OjA619ilxlYwNSWal/g+vRJNEXKRd0rvWqewTn9C2A+ZOEjCyez2dry4bn7M+d7fFamBuOpBFl2HJkNQwTcKIgjLHe2iG/5NwBepp9iIB5rpkIMgACWlCvXB9HWJc/3343wwoqpejq0rWM4ZyTnFpnefBF/4PIAlw4/zIEd70PQNHgyj1Wdobt3EyIKgGCNHbSqj80BYuR68N6xzLfrKIE0rt1VH19sS2qzVpboO0m8uXt6e4dsf+0PEaqNpubz7pc50NY7/TW7t1vzabBOxUNh+vy1sCoTLjHbePNSy6chrV2RMjYFmXaQx4aIb/RbN8bBfMNAlkzfP40sezXX0d0fZmrMl7MKUfyj8zk5X2ET4ru7XGaOX7VcBcJGRXFVsRxii3yDWchSVJ4RmARvBaTFE8S8BsRGrBHUTkARzrKcpugJn7SgNW3hJC59ei0OywAo5UBoGCgZmjzo0CWR2Eucw0IFI5AcwBRBnM+RVP4dx6uQ56yp9ST/28CGYBsenXZgr9aUSqsY4emKVu2ZpjVb/DfmVHAbNul5qs6PiehqU+vkKq5IP2MPSaL4IRBmLQsD+W61LaWwJmEyyoc1O7GxEztUsmAD5WtSufGzXWCkAq2ijOxTGza9crgDlCqbXuRkLpzehVIUUx1PZp8RT7LXgLUVcFekAwp9ci9cFWhVoCiwLKKmDWwKa6alF9v/008Kp9iBNSbQkkDVbqp0TiOnJfAmZ9bizDRMCmvGBH2V+2V/dxRsPcttbbU/yLDUo9FQBUoCo1apfoiv1a//qdmlImjzcf9dYj5qJdpmw36Ucw37bGudSP7SyE01hQtloBzMGB/aWMuHbsEtlzAwu4KkHURKa/K85dAmYdnVNd5UCqt6sRMVcjCQVXZXxxCEPCQCSC7igRs4rOCfyuHaGNGlrKH6ovJejouH6/pf+y5WUOV7+JglV9tWjbHJsmNmmvbUvZXuqjnZSaGqZ2sJ8bN/1Yk0rjaZkitKUAoOoXg9cdr7/bCcyuvNYac9GuFpixlLETbEXnS7argZkrrziwcL4SJZ9TwFUGFm3DTJ8vtxxENaQjYHV07kVNbTEvXOW2uDKlfSzSDHE+19/8i1B++aNuc/jMILi3a5jJQRwJ60t6DUIFlG7EHI7zN9fykoiOjD2Ewrlf/voy1aNb3Z6yb9SPEnR0nGq72LGz5TIcmGvfsd3YFgqkMXqWiFj3O7VP2d+3tzYpcD0VDdP37UfkGhO26nd3DLDO1Jtx3FWdhrSMh/yWH1+3Hy/iu3rE3C87nsv2uNSnj8Q+p9+uC2YSo48sovDss5TqUqsLZjJYEFU636wZ27vhT3+iYzNMWXjp9UweykHUqdx4XJ4E5BI132GnAZbX8+Yfl2MYyGW7uiGWQZOfMEiA0XBbDcxyM6wxccSnH0poy2SQ2y1PjnCfdNsVmMI+qVOfW6vf1aHWhRmmYs+/Pkwf9I3CYpnDlu190X35rNfwpnHTT/roI2bSkopau2CmMtwY0RqUK7qg06/T458+Ts/TPZpSw/ZcN3aixrOG9fk0buh4NTa5342rBOk7tgeJptcHs3NUTZT0XXqywh0vg/gQWx8xH6LMSynDR5Bn369iKcNGQfv0l5c4mu9Q9FEr1Ru+s5C07TmMvWt1r1EPyjyMv9p2PDKYawINs/j6oo0Rr4uw1zbwWZTvlwVWnByPZo8VwdzvQ9BzjkJzBGy+W8XGAHPfN20QjnbekcGcRaqXDI4BZTI8ImYnTAZyWEoolyncsauAZMU6TgZmeQRU3fzz9yJWsyXAPBpgd23P8cG8mihXHORo80HWzXYVKc6Dtq9NAwAzoAvoQgPQwGAaAJgHc8i1RQboL6JhaKDUAMAMMCNaggaggcE0ADAP5hBED2X0AJvAJtemAYAZYEa0BA1AA4Np4CLBLL/waz83an8BdazH9ZbP+uM99hR+Zad+Aj2YkJfbdpfos52waLV65dd/zefuoeHVbD+Ats8SzLVfD2onzYF5tV8a8mDSP2EVCATQ6me36XN7QtgGzPEnyzrHRPw58rJnk0MejJThjX/ibH++TLZdDcwzzxtLsqLuT6bXHkiUH6KS3lNrbtvPcxpOP8tugPn4GrYpCZKW1U/NrQ220bCME2zFhuuDucgzsL/xZ0XdHagrCqYJZulzqLsNZHtcjvh7eThCQqIvf2WYvvn0Zfryl06KJOXWtj6hUe2YFb+bATP9dPrL+zeNdKSHa1c7KVFIWFRLTCWDaJft+Wo4AroJZPGJH2c9Dcs52IqW1gVzIzNXeHNI/mVUBpDKPSuXcpRoJUYNEgmn2TomYZH9NsFRTl4knQ3byk9mE8iDmFL5FfH5NoS228vKdL5KoBTq7oG5LMPYpWVLTjB0N314L5nh3kx3n95whMuJkDh6ztDmdpjvZsCsfh1Ye3MJRdJUj04KZCN1F5FLZG/KbSUyytnpAqBfqLVQKvdueqPLkbLJn9THT+1XS2VNhGWKZkTcCixcoiLjK0nEtZOGbSKu+iR+Sg33wLyrhgHkrMdgi9XA3M5l+3Z6qi/PWODq8j8JPn7H4raQnY82SCD2nHRpKDBP21z3dzefp8ePRCQlRAOU8/HemPb9a1KO3pZlhjL89+F/M9gJNgwJ/9oqBSjKvPbHHafuFGCGN5TY6JmXJVKWthkwy6TFAHSAT0sc4V2E1BcGtAJkboe2g/rci5h1ncVxAnxpU4B4ysrHk09uV1gS8Wvk/k0zql2x3/VI+hgaDoA2YNagT/qlACdrcn0Nt8C8j4ZLuxdjS3R4JdtVwLzotTzJwA6iDGYN1RJSO4HZ1KfTdbZFwSBOk0gvSoll8MDJg6QUlxdvPE8irNTGss+5LAeTBC8C0910F9+Dp4HIsGyCWACnolYF1lRvqsfaiyGvj3fHFftTH2M5BXBz+fPttqA1xxfl5uib+1Sd5HLdod8z6T1TX9bQcAXMpr5TabgB5n00nPrl7X+9/68A5giOzitnCKz5cp8+KxAXDi6dsxqYaxGJgLkSuSdoibCOCWZ5bZUCoQYTfU7RozpGLvFz2/ePmFM9YgezDUCUm4t2mUO9PcWcQz53II3Rea6rbDf3XyaJBpjl/HBF568+rNZ66T3X1/COYF5dwwcEs2i48L31Q9bq9Xy/ApiD8VpLGeVyQCXaqKztauesA+YQEetLxzJiVhNITUxrg7kW5RF0BUaqTRrSGnIUwVo4loDTtk6fNdxVPToyT8eq/eY7LsPVXwA0Dr54rAA9bVNfy3abPhfllqDfcOJ3/dJcPfDbj8gdR8O7gPkYGt4TzDUNt/Ryxd+vBmYekJUbVixqBd4QeSjgLYiYfRlm8LMzHeyNg4N4i/Vb9wqftCYtEbO8dl61vV5v7xKzsZThonGJxkwbo6CLpwMWgVkiU3pa48P0wtijBFzZL3mjtaznZoBtBebam1AYwHZJgusvwCptkGNduz303fkMbfVqqdzHxs2/ziNyXn/raHh3MCfdSPR8UA03wLyPho0es7ayj67vu3XBTAZnoOjX0QQwylLG85uP9kbdAjDLGyGkjPRUBp1rboq4ZRIWQAvMUXDp/M/T45uv6YkQEYlAU+pJg0DEZdogE04Aspwj2yI6j3XT91RPLrvzqJEDkLTTRI/cNgJZeIJCjglbBzjpR9wGoKn1Z/eccx/Moc4U7Vbr96+YCvCvlxui3rAcUZZtrgTILvLaKddm2/8w6P1NPv+/PWdFDftXpylN5DacQsN+fMTlSBWohCuJ8P1WGnaay/28PiBL39cHM4yuHvE6pdD6ABZBnM92pj+NCWtR/4pg4pR+Q92LfHZhnAGYL8yhLRFTBErP9bb2n9/3K4L5SjRxfj6/nkkKYL7wQchApkv5Ym353EUOMAOs567hdvsB5gsHMwZvW/ywDWwzqgYAZoD5gpY3AJpRQYN2badNgBlgBpihAWhgMA0AzIM5BJHFdpEF7AV7XaIGAGaAGdESNAANDKYBgHkwh1zi7I8+IaqFBrbTwGWBmX9118vutp1xqmKq/My1etxawI+/aDO/clurrlq5nZ8qH9YOjZ+v19q0x3fFz6n3KOuw/T+AVtGXs70SAJi3Fe9Vg7md2OfwUAKYD29TwP5cbLo+mI/589ZjRMzbgnzh8ZSN79XPD04+w/dSXXLekwO/+649UI4D5nb9+0CMUt/q/DD7lIVz1/HR2HZdF8yV7HL8WqnXbyef8EQbX+8zuZoFciZRkHqpqQOzlNNKFlSWbZPThGRDkogoZPuqJSDitlPd3X71y+6moCwS8rjUmfLmkJS0RzKwBfFJQiCdkKi2FDL3goMysQ/Bk+yj++aXkvS+/Jqw7O8AYLFrfhuHB7OUo8uX72JCHZVFjcoX/+eyVf1y5cNJgnSZZDMq9/P0UB+jkvXMlr3ZTK20t7nfY4MB7Tytf1YDc1OYAlUZRCz+DD9Kt/n05pcUOfLg0oOCz1fHC6xpq8AcBqUbcDNl83qjaZfO8JYdRcdp2LOIfb9UW2j/srIbKSh1HxupM+/e5/fhMYDVT7DTz7Jjrgy/f7NZUG/1ykegmv1h+sn91j4IIM1Z8+L5YnPTTw3mcJ63+cPXnbKdrrhdWkdSFx+nyxEwE+zle9fupWXXAhOpF9s0xjEJZLaILVYBczfyImCZARIGYB6srpFm4OjB6o4joUcYcrrONKgqx8mgMGW7wbdp19UEs+kXlSfAWl42OaZrvxqYpT+y5dzEOXcyg1mBOrz/Tva7V1VJGW5bX+Ko+K7wr7W/sZ2bvESUYSv2p7SwlYnQtY/O0WXXJ3QBrWqT0YB8r30XvtupbGojT2j9N6XYfksbsL1mu6wA5plXSxUDVwagRMnhf3P5mSDrAefEywO9flmrB3u97FivRG8uKtIi0YM0fV/0Sw/u5WVTeQHMrcFMyXv8UoZ9fVPIQyzg3eQ3ZldgtolR3e3Nk04EQz59NT373tk7Tl5mUvWw1T5xuYULeJr2aR3IBOfq75QdJul8Hvks5e3W9ewA5sVlKzDfYs25oy/nV+2fK/28ApiDkbtLGSayDANQBjcPIL3fDBx7bIKiOC9BIQC8vPT9ZqN1U7ZdQyZ4+/Olvu3BvLTsBUsKlYi5HxHPgJltN1Nv8xG5ij/IB+I/tq9dDjK208eKD9M2lE0+aC1LPX/XKTvWnSfhSrRMdTkNBB/rSTXo2bR7adlYygCMk563m3xWAzMLvCZMNxj9oGMwS9QaI7K81ic3dBqDLIFZBlw5cHPUFAZ+Krs6QOvGNINUDO/6FW4gxYhtUdkRjt3IldpTRswM5pRrWaLnhRGztD9F6v5pgtCu4pVWfJ4Hs5sQud85ag2Rpp7w3PGqLfKWGpkcWRcCfDpupuyqj0z50bdV3/TBvKhs1n7tKqOuKZn0sYV9SAPrgpkGgr9pxPCMyw21O+I8UPL+pzcfp+dpKSM4LcA8HyODV9aYH8oAlLoE9DNl8+CPl9sSaaWy51750wOz3Pxrlh3u4i97XK4Ec1gzzq9/unv/Yfqi3m9H4Ja3Q88N/GIt2ftPbMtbmdwqvojHGZv++XF6XNw4DXAWe6eJsljjl7oy6LtlO1+H8vOE7jVk9/fBnN4HafyZyw5P2PgJDsCZ0x72Z42sD2YzkOMNOh35+P2n+r8WOfF3GQQ7C+egZc8kiD+w/cpH5LJ4JKqVZaid7XPgNlM7alEtg1wm6T3qXLPskWyItmitH/czwCwDlKNrHfXMLJvIeUu2Byw7PIuclylOO3j8UsZxxdvue2hXvtqhdvWWTbZp95plb9MOHNv2//nbBmBWYDWXxrVlFnXstqLYp2xeQ278eGTbdhz2+FHBLGvQeYmFliosqPcYvJVlkoOVvYfGDuvbPeyDPux90/P4YIbT9nYaBiCgAQ1ctgYAZkwUmCigAWhgMA0AzIM5BJHQZUdC8C/8u0QDADPAjGgJGoAGBtMAwDyYQ5bMpjgGURc0cNkaAJgBZkRL0AA0MJgGrhLM4dG1A/xwZDBnIoraI4pq5gPZo8x99CGP5B3gBzHQxYl8uIf/AeY9jLe94MPPqe91Cs6l9Ztk+TYR/nw7Yr3pWeicnS48I63LC7k2bCJ9yb+hjyOxl+Xep5wdcTBwCtL8c/H7eykjnGvr8d9JvfF8ZTed9D9k0yuPmbeLDNhePhA55shbgPmqo/j1wdzNtXBksS+F4E7H0eDuJK1hsN5NH95/mbYGM8NNgLaZtvv1X4BbK1cG59H464vKpVEBM9X/14fpzXt9HPmuAdIEZ79f+7u2T3/n2x0hncqWsvQ58l25LXKAaB+TRo/2yqyybcsnkP3PJTssy8myf13H7Nel1bUumIvscrWfs5bf2QQz9mfSkqdAH2NyNUjiophgxvwiS6KQ5q/6XEIdk9OD9vVfNyS5jctMbG+muxjtlW8PmR8AHNUaIC2DEYvVQd0LmMH8/sN0l5IelWDmNlP9EdAvEtQq7YgT0Bs6Rn9O50h/K+dq0NO5KkLOffE/R6+VI3WEbf/FAyH/tYFV5Sf0zQRZrCW3LEbnk3a03sySRNB8mbgptFf/StToN9pQ77evR6NyqS1ax3b8dF9hVvjI2tFrB/+vZ5/VwNzKx8xALYCnhO0GhT8+iTIK3e4nQaqyWkLjAeMF6yeIOHjSgBKxy3nhfzMpUH18hdBKch+jXQ+cVjv5ew/KGDneL80YJ8fniFsPqADmFxyFh2WFen1hH0FQl1OBooFx2H+foK+FXDlXgTlNBsY2/XN0v8LnmEq1Fw1Xr+hK37LORAusH6Uzp1lJb5oy5bnjTVmmf9o+9URMVu8+n4sAX9rmNS3lL7BLp12lnaVcbA9lm1XA3I9QHDxJ1CL4mBXMws4ez2DWYDeQDQOqFmUYg5lzopj84CJhmuNsO6g8aku9rvbrmraPmDMoOXKOQK6Dqz0w+Pi4xqyXNQTMORrO9bHNOOLOUWo6ngeuB2X4X5dPZUi7aS04rymHY836cGwfHV5dJEIAACAASURBVGPrkX65tlXbIMe2faC10FrisPAkwAnsAgyt3wMAk25ZS/l4n4WPy3apbHWb5HOpr6DvVA/3X9etPwc72H6IbcK2P07tsdImbI9jlxXAPPNqKQc0El8WWhBWvsSTJDRZ5KVYnaEYpnKeRLe1Y9w+Gkwa+IcAc+V1TLuCmQCmgWfBFYClIZcB6PrOoL2f5CadLufNJ4qGLfyKCcAsMZRw1W0sBjFH09IPD3VqZ/6uqDdBWEfs9hxTX1xG2+2VWW5SJk0pbZAGS40qHde0xO3PvtBlWMjbY+y+Mjiw0N8FzO2rO2NP137sy35awxYrgDk0uLWUwZ1IwiWhaUCWwvKdngWzElAzMjGRcDQwRzm6LfnlriHxfjkoqm05+FJGjDjNGrOFp7fR3P96ctBg5jXhTx+mD39JZFsCP8Bf4JhBOlen7Kf6wqRQO1d9ZyaA6CMXvYcy1TnK92HfzCV79xG5rEXSkQZk1e+67qTvJYM3RMG6fLFVWU84NgcyVL7+LrdZyqhHzDN20X3B55M8HbIamFkYxc0/ESqJ6fP08KfPRvB0ThOmUSClWKXMyrYGWyqnBuYiX28QeR4w1OYcuVNbi7ZEKJc3/3LbNBRl8KRtjCglmvXfpyiYj8vLC+m4RYMowjaC3oB5Q/u+TF8SmAl6AmHpQzg/RMY9KMrxehuOb5+ry9PHUhm63rLMZJuKDeqX7AFOPV8FIL+dHv9Zm7CtFowPtgKz11nuW6GvqDl9ZcfjJUXzS8AcoTz7CrPcDtO3in2x//C2WhfM5MTqzRUBcF3cAc7qcjEJrwJDLRQGsTrPgbQot3g6I0Qf6TJVrX2bd/jFOu3AIcG3HpeLMFTPEXPk6W8CtsBM9ck+LmMLKJvz4rO+Kvq2YJZH8WLETOf6Nm70DUwN0lKcPAm5Pueljtq5/rvwvyzR5HN1Xf4cvS9/LtaSG7q0kIl6MDqIZRZaU/DugjnAM2mMNGjKdxpkjdp7GaS7fL6qt/LWcta8Kp/sYJ5A0eMHn08SHVvNBX2tD2Y4exhn1wRwrd9RFA1A5YnrWnUwar8BZkwcmDigAWhgMA0AzIM5ZNQZHO1CdAkNHE8DADPAjGgJGoAGBtMAwDyYQxCVHC8qga1h61E1ADADzIiWoAFoYDANAMyDOWTUGRztQnQJDRxPAwAzwIxoCRqABgbTAMA8mEMQlRwvKoGtYetRNQAwHxXM8ZdslV/TjSqQw7Zr/mfQh60P4IE9z1MDALOAOWZd0z/75YQ71VzCNWfbnw+HnxH7n06vCObGz6fTwJSscqecFLpJg2o2xXfJf6JTbK9i2WV9MC/KSXCsAUgpSV9OT2riZrB9mb6kPBL01pEv05etwOwT/hyrXzGXRge6lLfiy/s3nKTow69rtYvs28oXEt4U0ksadFwIdbRQ0we+uwogHleD7XG4Lphr2eUowcvrtzGLXEjGkjO4hYbaZEMq0RGf+3F6/Ced93V6/NPH6TkleVFJjvLbI+Ixj2znm+lICcyc8jJGuX/cTXd/UIQbYFvLCme/y8fWnGsS+iT4S9tCkiNJEG9Ta8ZjqH0qIVCK7CUSVvvKaD2XHwD9Ig8y7veb+B7BkOQolR0TFtH/4eoh7K9mcouZ9Zr5J2oT9KwWXMIf5WfSyPObj9NTSURFZfmEQPIdH6N0FCHb1AIgnPUBW5zEFquBuSl6GSyS8Yr/VxmyHn2cnt78kozBkJYBGc+lfLQhwxadp9JxcjpPNQB92SKy2oShABUASYBWsGUA6ojYp6FUx0o9lS0DugFmAqpAkUGYjltQNrW/FTFz2/OEY44T4Etdrp8yoUi7qu/xq9nT9b2aNGhGC9/dfJ4ep4nVpscMkzf5OsKbNKLTue6jBdf22kSL7ySowHYNLawC5nr+2+hAGowCWh4ACqy1AaEHmzo3p9zM54coKkPdvt3BCchFeAmYBKZPd9Mdg8oC0aTI1LDjdtOxMa2mbCugTPWYvsa0oAJH2mdAG8pOcDTnxn6Z421fbZ22T7YeOi9H1yQ4ey7tt+c3J2DTxsYSh/JnEHf2ZU3sDOM4oefPAcycPF5pZR8t1OrGd1ZTsMe69lgBzDQIb6fb1lru7GB0l69yqUoDXZ1bA7PNU5tz1to3PkSDRjBLOzOANJjos4qSFfzoeAtKC6yWcHM92rG6Tv29+swTgYDf31T0IFfnOdBSu8wEo/oU2hzaIn0r2xsmibCcEZOud9aVqUyGdy0xu/JnqNuBmUGb/aiXKubAvI8WQlu0DfEZNjmuBlYAc+hAM5KaGYw8oHREraKgJWD269VVQVUuvUvQUj88MAW+DtgcHcq+vgNL0NXqWVCGvylZADaWYYAuYL/Pyx7FebbPZXsr/azYM9u984hcVwsEaZsgPsM4vmiBo+d6xJwn7r4tN922z5xrrgpwbPY5bLGvLVYDMzesJvruYIxrx7L+HN/IkF4Dr87NA09FWbTfvbWkMBC3qXxyYBmY5e0d+ukNEWEFWJWBW4KOzrcwLNrsyyGYejAzgFV0L+cU4N1M/EZseWWU28/tU2X79vLad2WJJrypppJ8nuz9+7PpgbRHb5U/Q5+VL8277OR1YPltHxnSdTCHm8DqfoOuVz43tDBrfzkf23QvCDYTDhxmuy6YSbj+bnx3MKoByEsY36anN/TkRbw5qM6tgpnqYzjry191Y3HTfkTKXN6nAVcBZoxAyycTemAO5einKvhzWlOu1JPa4F8rRVFvBcCyHizr2xGuvX7xcgVDXkXSCso02AKo1f4alFNby7Xk6k0/OV75swSzvH5MfPl5enzzNb2GaRbMVMeOWgBkDgMX2HF3O64PZhmEl7JlMFfWeM+1fy5i9oPJR8x+f/d/Pymfq43QbkTGR9YAwLyVwUNkKzfGulDaqtzdZ9a927AmmM/FBmgnwDuYBgDmRQ5RSxFp+eGEMF3U5oXtA5gBpUPqCWUdRE8AM4R0ECHtHbnDD/ADNJA0ADBDDEkMgOvCqwxoBppZWQMA88oGBuwAO2gAGthWAwAzwIzoBxqABgbTAMA8mEO2nVlxPKIxaODyNAAwA8yIlqABaGAwDQDMgzkE0c/lRT/wKXy6rQYAZoAZ0RI0AA0MpgGAeTCHbDuz4nhEY9DA5WkAYAaYES1BA9DAYBoAmAdzCKKfy4t+4FP4dFsNAMwAM6IlaAAaGEwDAPNgDtl2ZsXxiMaggcvTAMAMMCNaggaggcE0ADAP5hBEP5cX/cCn8Om2GgCYAWZES9AANDCYBgDmwRyy7cyK4xGNQQOXpwGAGWBGtAQNQAODaQBgHswhiH4uL/qBT+HTbTUAMAPMiJagAWhgMA0AzIM5ZNuZFccjGoMGLk8DADPAjGgJGoAGBtMAwDyYQxD9XF70A5/Cp9tqAGAGmBEtQQPQwGAaAJgHc8i2MyuORzQGDVyeBs4OzN/dfJ1+e/ct/L1+u9VM/+L9l+n+05utzjmN6F9MH/66n+7+aAju1w/Tl/u76Q0mlZ19eT5aaGhgoe+f3NxOr35+sLOdjP4ffZyey9h793l6uLANpgycs8gXZwdmcTIDegUwv/l0P315/6JhvBlgHkp0f9xN9399mF40yuu3cb+BLPa99O1VgPn7Z9Or25fTk4aOdvYxAxpg3tl+C/yxPphXEkcdzA+mZ7+/mp59X4fTksHYh95xwExtaEbLmzfTHaLlxsRZ93ttAC3RQu280b7rRcQPfn51uGhZw6QB5tXq03Vfyed1wfzjy+n29nZ6+aMaMD99nn778+P0XTLw2+npu6/T40fxGNmvL5sqkXEdzJtpU6sz1iWDkcB3fx/+BIC8L34n+3gblz70OXp/iq4pyv30ZtLlpH2prwTV+/5yyswyhfQhAyKA+gMt09xTtP+Gl0Hu779MH34Vu4cJJbU7RePhe9vO8jvdp3szKdCxVE/sF9tvuyUWW7Zv81zZut6aXV2/VdvFjtqvooVgW1u2tZHYtb3V5VpfbCbaR+Xpvpu6WQNZo8Fv3q4UhNxOt78/mx4kfen2PJle3vogxY21zWZ6+Prb9PzmlzDRJeDScXG50IzVWH46TtdHn6nO2+n25sneE2fWt6/jOv5fDcw0e94WwthMGwFvEpMTC+1nUcRLJRaBAnc8rwlm2s9Rerm2JgNBBhn/nyAVHC6Dpi6MMNDNIJJ+EJg1dHlwadBQ+XGwd9a5+/XT+Z0yYxuofbqcF+/vCki3beDq4DIzFKzNBHzSpvC/lF23oRpYv36Y7tSyUb/s0Cd9j+DNp9wusW32TWxbw9Z9Lfh+BL/lslUfxP9qa/uxiQDObSXfaK3Y413dbH+xr9Q7D0AefwUg3VirgpmALOMtAPrpT1Jv3DbBTPvnJgxXlrLbrF6u6NhVwEyXV7etta1FYBZhkBN/mR7/+W3y4uiCmR1YipcHgB6olehUA60UShg01QFKA8hAvnNsU2AOiv64og6yjzpH7e/1w9pBnU/1URnKRlSO7a8+vuyjLXvLQWj8UZbNbTM2tuWbPlM/VITsfVm0U9dNn109xfHeN+l/so+3me0LtdNoxddtJl9XXiPosP0LcDRXqty+ZWDWY81E1NLHLpiDT7oMkHKwbV5ZrADmCMR9wFy7fHJOXAxmFbUXg0sPiFi+Gdyuzs3GDjAzGBQUw/fh2MXR4yZGVgqKpvxm3QqUqg2mH9xPd2ms6tHH0ucM4tCHtASSlnokgivtUdi4sKGGaa18iSzLshnMGrYMX9svsTe3w8FV27Nop9ZCpVwd4epyys/KH6nvti/a3vXz1Q1obovYZDOFK9HyatCUQ8t51SWOJWBecFNvMZhn2pnsozWBz+TLFcAcDLvXUsa+YG5EFd3BGEXSHzR2gJnBoKAYvu8cWxXkzPEaHOZ8BQLVhtyPEHEJsKhthR3SeXRshkB3IuI2lG0uyjZttYOO2tiMHGsTUWrnZtrEySZPInb5Zi66Ltqp7avr6bTf+D8dF+yt2+WXWbJvrD20bvRkaMuic8qrQd2W9g3BY4AZSxnaF7t+Xg3M3KDajTheQ5ZZOSxT5DWt2hp0TbybqRkxRyiXl3EVIOnBGAcWD9hOpMUwUdFmMrwbzFyOgRz1IwxavVTQOj99H9vVHsxUZoxgVRvy8Q4UEWi2DXTM3fTmj7viUcF6P8QnC8FM7dLr76pPuR2hrLz84MsO/UgTDPdDIve4BMM3P+VRR3d8AmdoexfM0U+pLneu+Ia1UCxbxLVwpSGvqewbsaPaKh9KPfVtA4Cs/9YjcnbNmMfQu9rNP9WeWt+bEXNsU7G2PVNerY4r/25dMJNxK0KhdSv5kcjTn9wsXqxBa6cKyPP5XE56aoOE4e9E5/P7g1GOE0DYGzR5cIQBLxFNGrwCn3S5ryNPKTueWwF7d7DqdeRCsFRmD8xy80ku+e8mfoLDtSEAWIFO1RP2yfk6yvXwrEx+VI7YxtUpUa/Y8u69/uGM84OBbrCngJHP/+vD9KF4Bt36KkO/0s5ikvbn6iUeW38Z0UY4N7TQ93XZb+pfrQ7SpI+O6zf9RH8x8JEnLl6/bTyVoY5XOhCQy9g1N+k3YZnlYD9mUfXmsVdv1yXuXx/M12LgxZFORVwFFOwxxYRyFTYtoX+JA7DoU01HPLHVJnqrk7DE0Q5MirquQkfeRufxP8B8KHHWBtShyr7Kcq4TzDwJq2UQgilfGbjvANnzAOyufgKYDwU9gLn56M9u4rxOMMsNV1nekWWa1s/zd7PtZUPtEmwCMB8KzCjnwGAGPC4BMOjDbjq+GjD/3//9X3gyIN2QUTez8B1scwYaeP78OSa/KwmArgbMmLl3m7lhN9gNGji+BgDmK5mBMbiOP7hgc9h8Vw0AzAAzLo+hAWhgMA0AzIM5ZNcZFuchOoMGLkcDADPAjGgJGoAGBtMAwDyYQxD1XE7UA1/Cl7tqAGAGmBEtQQPQwGAaAJgHc8iuMyzOQ3QGDVyOBgBmgBnREjQADQymAYB5MIcg6rmcqAe+hC931QDADDAjWoIGoIHBNAAwD+aQXWdYnIfoDBq4HA0AzAAzoiVoABoYTAMA82AOQdRzOVEPfAlf7qoBgBlgRrQEDUADg2kAYB7MIbvOsDgP0Rk0cDkaAJgBZkRL0AA0MJgGAObBHIKo53KiHvgSvtxVAwAzwIxoCRqABgbTAMA8mEN2nWFxHqIzaOByNAAwA8yIlqABaGAwDQDMgzkEUc/lRD3wJXy5qwYAZoAZ0RI0AA0MpoHTg/nRx+n5u8/Tw8EMQzPdw9ffpuc3vxxPtGyLb9Nvr98er84B7b5rlIHzEKFeigYA5g6YAGYM9EsZ6OjHeWl5fTB//2x6dftyetICICLm9aPjH19OtzdP1q+n5WN8D9tDA1tpYF0wExBub6eXP7rZ6qfP02/vvqk/u5Tx3c3Xxr5fpsd/fp0eP3o7PU3n23M3pmw6NtdN5dLSBEXCUv/Tn/L+zYbKz/voGLuUoet1+6je128n3XZ77maybbPn6zYV55GoO/2iaEjXS+22/XowPfv9drr9/dn0AANkqwGCSFOPD3w+lh5WA/ODn19Nt7evpmffO2dyhKyA6SNmBlCGLQPnz4/TdwwUAWc+n4Ema7K+7FpZCra27LCmrNd37VJGqDtDM0A6AVDAKW1xdQew5na3HGzrjLab6dfG27AB3yc3t9Nt7+qlcV6rrfjeaRv2w6R3IA2sAuYeAArwOKjQ/gQ77iQBUIAW4Gj2EwAjuAm0GZw0aOzxDGIBJ5Wt69afo3FNW2l/miDCgDTlqXYEYJXttm2rD2pTZ2zHXL9CP7zd6uU3J8xYF2BbtxvsArscUwMrgPnJ9PK2HZkV4DFAlIjYLif8Ngfm+FQHlS1LFHorIDcg3RbMEhGnJZRYl4C+C2YXXXcgWNgnPh2i+yOfpV8sGN0+N4FoQQUw32LNueMDbS98BpBPoYEVwBwc2YrMCvBUwGyAYwaQjYDZYAqIRdnm3LgOKyClfbpu/TmeZ8pT9VQdVewvI+Z2v7L4TZ21drg+1dpCZchVhN7fu5LRx+Fz9gdsAVucQgOrgZk7U7n5x1FriuhCJPmbeo6Z96v/rVE8mMP5aYmAo0ZZ9igF1Y2YNzaqDe3QN+hcXR6QXTDLzbm8dm77ldtaA/PS9Wkp09o4lM1Qxs0/rIF63eL/ITWxLpjJ6cXjcnq5giBKwLPAEijKJXuO/vS5YSkhQVkExnDWSxq57D6Y3ZMP8QkLW36Ac2qXfvphBswETd+vXHZZLtWR97u28XKK65dZYsn7GNZ4XG7IwScTKbY5MIEtgi3WB7MA8yBbHzHDoRAyNAANXJ4GAOaDTBiXJwwMdvgUGjidBgBmgBmX+dAANDCYBs4MzKebwRA9wPbQADRwLA0AzIPNlMdyPOoBZKCBcTVwcDD/8MMPuCwC7KEBaAAa2EMDAPMexkPEMW7EAd/AN+esAYAZYEZkAw1AA4NpAGAezCHnPMuj7YhSoYHDaODswVz9CfMIsK3k3oBoDyNa2BF2vHQNAMxrQRxgxuXxWtpCuRevreHBTMl3Xv38oOkIRMwLoifkymjq59IjL/RvwfgYcKIbGMyt1yHNJDIySYxspjlKIkSJgTgtZkz6Y1NxurJ1ilDOPvd5esiRcEySlLLkReebuukYnUxoz7KL115J2SEBku2H/65ly/MULWADv126BgYFc0y2X3mBKENVAdNEzAxNBWMGpQAsZ3dLWdvcflt2AGk6NqYFzbB18PN1u6WMvcoWKKt+a2HasiUTXe63HIt8zACaaAHbsbUwHpg5TWhj+cLBjsSlwSwRcRZdgKtEk0XaT4atgJxA62BG4E5RMe2XY4NTdd36M9dv2rpf2SEfs2ubvvwydVmbZFuENrdeYOCPw/9jD1z457L9MxyY5dVH1XVlByASpwYifda5kuVzH8zxXXlcduX8Q4B5z7J5QkntqAlST0CVSUBBXOx7W7kawWCv2RbfQRfH18BwYA4iaCxlLABzXnoojdmNmCtlW0HuETHvWTZHzF0wq9dmUZTfWPLAUkapCetj7Ic9xtDAoGAm49RuWBEc89ugGbT6TR+8ZmyXG7TQPJg5wk7AizfnGlDbmGWP4DwdrduoNrQzr0fvV3ao273RREXBoY9h4nj+Z73/eLXUGANO6xGf4ZOWBgYGc3Ba8bgcwzcuOdRe/6T3z72CKUFZBBIBql7TlCPwfsS8kRt0fC7BkY7X68L7lE3tE9jLcosuO7TfTjTSp820weNyeFyumMiVPrBvOH0MD+bWjLLL9z5i3qWMkc/REfzI7UTbAEVooK8BgPlSogW+UiijaAyA/gCAfWCfETUAMJ87mNPSTX1teUTRoU2AITTQ18BVgRli6IsB9oF9oIExNAAwn3vEjPYPd+MGcBsDbufsh6HAjNdSQdDnPJjQduj3UBoAmBFxIuKEBqCBwTQAMA/mkEPNuCgH0Rs0cL4aAJgBZkRL0AA0MJgGAObBHLIoypnNvdGKFF5MH/66n+7/+jC9OGi/30x392uUa/tR/Ar0oH2wdS3yw4Hqxw+DTmf7Y/p5m7oA5gMNrm2MXh7rf24dfnYtWfGK488KzGEyuPtjz8HH6WBfTk+G8Fe/L5LDRbIb8rb4+X8uA2DOtii0fgb+XqPNFw1mTnF5VuktA6CbQBaRFmCmbHyjQms5mHv+on3VVLBikwG3NrFVGz4ezOfY1zXgdM1lXiyYWykuaRCYSEZlp5MBoiMeA0kGojpfZ6KjX+CZqIggK7/GowRGkthIzq/9fLoD5vQLv/r5DLXbV9Oz7z0A4vIFLTXIn17K+OPOLW3QssSX6cOvoZwX779MX96/mN58yufr6Jf2p3I/vTFrlfqcdMz9PZfnB13LX+E4mngqffP+0Emr0uSlrkaMf0Iu76wF8RX1OySc0r43eVbIFzGBlpyfk11l+7fB3EtoRec30t4OOPl4P+L/7P99bHGBYK6lC43GYrgJEOPgUHBN0I7f2YHloRn+TwNyFswE1Dz4uS5Vd3CiryO2myGTz90k6DgRUBa529vp5Y/uezWgGaRbgpmgSnCmNhbnx7L5ewfm0Ke5iLnjr1h2PZIO/jP2V/YNNtI2t7a1vpXXjlltdMFMk4D4z/snttvXIQPV+14CAtkftvN2sce3fY7jzs82FwbmfqThB4QfOLxfR1UKgP5YFruGsf7MA5NAIDAtI7B68nsLDxlQxcBV7ZJj0rb3aq4aWBdEzPcauL9+mL7c301vInyk3t3A3PdXKDsAqphsChg62/H+nLubysp2dMdyX7SP9OcwqNn/AuLC1+XxVF9VMxXf5XaVAOlfSZTHiz+wPW/bXBaYY8TYem0SD5SUIzkMphRxmYFbOtUMTIGSHqD681Iwp7ZIfTVgaKDE4yqDOw3ECObbxppzEfGeEswz/uI+0TG/P5seiM3TNtgq+Y/sr+3Zs1HlpQd2+aIErfF/4etSS9T2w4G58Q7MZAvRD7ZpHJy5bS4LzOyMziUgD15Zo/3m1oQrAFTOrQ0y810xWAkcR46Y11rKWC1iJpB0/LXZTO1H5AIMZY2Xtnrpobncwz6tTYD6u93AbOrfG8x9u1wKgNCP+mR6gWAOHS0vAcvB5kXRu6SUNcs8+PRA3kz2TdYCjRaYw7kp2ksTgCszfm8mgPQmE1kPjY5lKFdukKWyw3HViDktTciNQnvzb7+ljE24cajh7tpEfij9tZk2vUfkionQCbwbMccbf2rZyto4+C/5Ryb0xlIGn6uj9arfpH3Wx+Fc/9qwCOWzeqJI+oet58ou/18smMkYxU0jGWDq1VH6SYoumGmw8WDPEXcauHEg0vkSwT39iQagBbPso609NwxWvZ8+50lAQC83s+h4DWZaq132uFwB5k0EZ3xi4+6P8qmMNpgF5PmJDX76ooBw/AFKrENuJHrBen/5/+3x2iba7hEMM2CmsrS/zDKI9/WfH6eHN1/zzb5CR9oXciMxt4n9qiaBMInH/ZXXo1G/z+3RQOsbwHlfe1w0mK1xwkDOsCPxuMgoAtaedwiR1eo+RLnbl9G+Sbd9WYe3k24DTTadK4BaxMzAtJBcpY21ulfTjrYJPq/izwF9d0VgtpeQ7OAYAVtYryH+UcAcItdWxHpOordLD8FnHAHryHStAQcwm+fVz0k359LWKwKzrAPbS8z1oUzQOCGY+fE2tdRQLDOsMREdo8xgU7P8cwwoE+wBZoB5rUk/lntdYF7ZmOcyG6Odx5g4UAd0trsGAGbAGtEPNAANDKYBgHkwhyDK2D3KgO1gu0vRAMAMMCNaggaggcE0ADAP5pBLmfHRD0Sv0MDuGgCYAWZES9AANDCYBgDmAztEfmLbfAyPfwQhj+zJLwN3n1kPHpUs+MVcvc74K0CdUvQgto2/Gjx4uc7mzWRJ7riD9InKjL/27DziJ1oKjwQe4Ycz2/YNjw2uNqEBzFuJcf55ZBlMdTBXfuSyVf0dSDQHSeV53+In4arcswLzXK5n1a+unUNuiiK1aPecmbKb/pDzZsDMflhj4u5o2AQNEjx0JoTZPkpfsa0HM227XDSY+7kW2kZpG7Ej6iWDeGfoLWjr7CAJbbc5OirlFm1cnoejbbdKPUvsNXvMcjB3tUDJkqqpRfdo96w/Zsre9/ym7RZomOo2uVgabfVtpKsOJF46SBR9sWCuZiuTVIwpiZGNSCSJkUS9OpGQTXgj0YRORhQjIC7blpuA1RW8Pl+9HSMNsDCg8i/dYiTDIM3tKfa786tg5nbpMmyUxFCr5q2oJDEySw42IRLZgV43lX4STrmgP70Jb0WpJDjivB7yOiz3i8XDvbaqlVrU2VsvOaTJS/lM9i/wh9ZXegtK8lOAIB8jZbp9JgmSSXYVAer8KT6f17A+32pANGzaTlo3bUSqUrHTvtsLBHNHHI8+Tk9vfkkzmhd/Em5M7+j3L/tpNQ1WC+ZCzDIxSBpJznSmB0IY8Hk5JEJCHV843kcvIcvD3AAAHiFJREFUfjC3EjYxSFR7E3RclLRLrufNAjATeAW6BOqUgjTX3068NBcxd7Qg9mmkFv3u5vP0+JG0IdhfAJezDIrdvL+W/WybdeF8mjQoGonbVDetTetz/GTP/0u7pP16G/qStaX3xc++TLGV/57+N2AO57eCokKzUi62iUliowsD85JXFSkhOgjxoNBCc/t3BbMY2+ZsVu2oCJPakgajHxCV4+fzNzi4xDJMPfRd0WfVzvh2lFZKyjKl6AIwz0TYZLvdwLxMC90lDmVnA1G2kU7LWnnJQgNaSQty9aYh6+vTWlT7dBnhJqKAuO5je/yuYK6c1+lj+ypL6anZJxxzWWCOUV17nSuIK1/u0+V7jlQLSBXCqYizOKaMmNPA6AGW9+nlhAzmMnKvCLczSEL9oe0J9rHdRZ8XgPm2kft5KDDPaoFs2EktGuFrtCIQ7dlI9DDrj5i3WcqU8+K253PymWlXukKrRO6u3EXBRVWnFe13+hjAfIs158L+lbFbOeaywMwdbF++sqB1FOIGWAGpwmAVcRbH7ADmCAF9eWna0hkABvq6b0W79gTzWksZq0XMNADaWmC7UZ+qN/0C4PQkVkbMeUJPPtA2X+AzU6Y+V6Lpij/5HBVM1CJmraOybQs0vCeYsZSxDL6lb/J5Fwjm0LmaOBjMKUIJAt0uYo5vvUhlZENmI+8KZrkczelJMxhKUOT6YhsY7qoMN9AlUsplhvNsZBbq0TbhehjKnaT1sa56xHw/3f0R6uL99+7m315g3uO1VRHa9Ufkgh0S4OLEmW7UuQm98AXZY9Yfu0XM1l/yFpbs9xLcpUbtOCj3t5bczHliEzd58LirTnaVegqN4hjR0sWCmTpYrB+KmOINlac3H6fnKvowUWpTNAKvcDmZQMdRRusSMwquGomEfSx6ueHz58fpsV5j5rbYegt4SpQlZaR+yQRk25baHW8KhktjGuBUj44Glz8uV4J5M234hl7MB/3pTflURhPMlSc+9I3C5J/4A5TKUx0i8qoWGjf95JwAOLHZ5+mxfrXUEjBv6Y8E/dgvD2BpV/phSrop+HH2ZnP2tYDPaintr2pYa0Gf93l6SHbQYKYJHI/LFTfysu/E/vPbiwbzLgbBOfOiadmIwSxPWCRw7l5eq55DfE+RXesm5iHKRxlj+v1c/AIwDw6QcxHShh+NU8sUsOtBIqfz8T9AfEhfAcwAyO4AudjXVgEyh4QMytpeTwAzwLw7mGE72A4aWEUDADOEtYqwECVtHyXBZrCZaABgBpgBZmgAGhhMAwDzYA6RGRNbRE/QwPVqAGAGmBEtQQPQwGAaAJgHcwiipOuNkuB7+F40ADAfFczxl1P611JHrf+8hT/aj0Lk14Hpp9vwJSLvA2kAYD6QIWWm629PA2afVF5yV/TbmiG+7/kbed55n18FzvyEemlfDnkcwJw1cki7oqzNdNFgLnJlHBXCxxTt8nwWAZJfpg+/Lmtf8TPrRjL71mCS/BkfPqmE+A0/9PxF+67lJ9TX1NeWbq79+4sFc5ldLkSr9rLTf+cS/pgscjldYk44lLN6sZBcEpiUHMYntDHlRkC6BEsmqQ2V+/rtJBEaJRzSZVPdDLXq6588gMvk9b1BYF4FRUDl6PduetOAqymLjo1RMkfdnYi59Jdud5k3uZbkp/jO+KPiK1pS0nY3fnFaMImd4pUPJxJy5Ua7ZI1QIiR9DJVL/+sydKIg6jf1F7mMjZaW6O2CjrlAMLdz8PJg0YPPZQmz+8PAzADMA1W+s8fTQNMDUIMlf2Z46DawmPwEEf6XetI73uQ8Bo4fzJtpsyBnMmd7MxndctuqAyFmhwvLHzHjWwew1TLiu/7SK6TMAGr7S8qqRtLsO2tv8keymd/vbZagHe3ojq/7yduq7nM/QfD/CeyiI2m715nUMW8XsQ+2YrPL2V4YmGciDQdiGjBpINO71NLgiQ6mwZtu1MUBJXAkuJj9DqYGPlkwtQHvBzIPNF22/pxALgM7l83nVV//ZFNobrvGLAmK7nUu5Ub/WpCoR8wz/uI6AqBqeZMNiJ3/rG/JRsF/6YqJbGomUruffeL1UPS5Buagg1QPn6PL1p+D72qaEDv2rySc74v2Yb/Y8dy2lwXmGDG2c8LqQUGfFdwY2pJ/V20dmO2Ac8I3ZVQiWlnS0HBvfGegvwOYbxuvf9psAqTTm6rnBjNHzLImHXMfbxNxx/KrYJ71V7wKaCVe13ahz8qufDWTclNnfyb/6XMbNtBl5Alc+7wFZqUrLtvrzr4vcB7MSFF6bmDdt72XBWYeBP1LwDQICKIJuvLGiTpMg5H14NKDs/65FXGl+hUM+DvdFoG1fFdApAaEhUsZ3Zeb+r7UIB7gvG3UXQXzAn/1H5HLdiCIJujyW8fVsoaydRowhU193/X/IQou4ZzrT+Vy5G7bIsntQ/tKHdU0MftarFqf8N3FPK53gWAOA6p5CRiB/PDmqxnIcqmro6482KjMckDZ/Xogy+uhStBXB2GMtDNYAgjS/wVEKkDg6HP+9U+yLOHByuC8z6+BCn2rrCmbCDr2WR6H60TSbTB3/LXgEbkA5LfTU5nEBE5kM7NUUfGPP0fOLbbB98vAHF/3pMq2E2+po1ITMbjA20AuBrRdVhR6u9LH5cIlaglNga9+A3EejOWAMsZmEORLZguFcK4ulz+rS+/wjrh8fq7Xr2UTYDyYaa325fSk4mBZuqD1YfnzUKZ+1MFMddlXN93fy7KGAl0TzP7c/IopY7vYbn+Tz/9fO0fsZuwldih8onxeTHaqP+Z1W9En2ldFuXSMXb7QyyD2NWCljjyYqd/X8mhg1afivyveXmzEDIdr0JzjZ5psllwBnGPf0GaMz74GAOYrnpUxOPqDA/aBfU6lAYAZYL7adbxTDTrUC+DPaQBgBpgBZmgAGhhMAwDzYA6Zm0mxH9EWNHD5GgCYAWZES9AANDCYBgDmwRyCaOjyoyH4GD6e0wDADDAjWoIGoIHBNAAwD+aQuZkU+xFtQQOXrwGAGWA+aLTUz21x+QMK0ISPD6EBgPlcwLxNgvpt+3SoshfktjiEaFEG4HfpGrhoMC/KtbAtxFY6fjY/wqHgWWv/FmX3IuLZPtTqPtl3vfwiAN+lg2/0/l0smFvZ5ThhjMrTmzK4CSBcghqTHMfkW/5m8v9y/uTu659cIiOdFIfrbiWNbyQCcsmE+N16KVGRf/WTTZR/fy/7l5UdRNxPpxpeh1TLbREy5aUETirrWijX2cUkp++dS/s+Tw+1T3zZxpc2yRDVzRM38nEcdClrdOCdS/suEMwdgPAgVhnGBMay5YFcDuDgzACJDPLwfwK3QECAy3XlsjjbmOyL2cvSuVL/ptP2XlTrXpAqL0B9EcstXqia6ouRYa9sPrY1aeTIsnV1Qv0u+ynnRSgnu8j3tA378rn+WIG2+NMd7+wfXs8lx6p6lryOy9sL/wPmK2vgwsA8A5AYXWW4qgFagEDv24QXodYiMvmOwCyf2WkBFKGuGN1pZxbH5/qq0X4HnpSy06bypEg4p+cM0bREybmeFD10yt5UX1XlywgTSuv1T9Yu6lyezCqwJDvV9pmJlWyaJz7qi06fSZ8z1KlO7Q/VBqprUR/dOdqX+AxQH1gDlwXmJa8q4gEfc+wakIYIrA5tO+gT0DRc9Wd2korg4oSQLudlKcXUnwd+ALN7nVATnn6ZQvIuZzBTeyXfcvW9fc2y5XLftcWLkOzeev1TBKL0XduXQdqwgXm1ltS3BMyxPJsPOee51vUnP0Ywt1/HlX2TzpE2YQsor6CBywIzG6izHOAMyIM3gaETUUk0lo4NA9WApQFmBoEBSm+Qd9rehGcAs42Ye3WEdWXzzr9m2VJO/0qkd0PQgCxOUAmOhc2kvkbETMenNeh+xNxfQlH1YCkDYHVcMJo90b4LBHMYdNXlAGdkA1aBbxr4avDSeR4q/t1uDjJcdiorQL/92iqqK0K5+TqhANQagGeXKky/A8gNmONbSmplZ5E2Jo2tHpHzVyXhf7vkIHb3+9QVCPfHgdn7hyFulzpyX2IdDOXaDUtpA7aFzYyWYJ+17HOxYCaD+RtSAZb5sjZHX1lg/hgDjTj45bLc7GMQ9MqOcJZljHf2ptiiR834Jl99qSLAWfbdT/fp/XuVpY5Pb8ooqVO2Fp+Pjr2N9bHyElKxF22NzRJgW3YLcE7nm5uEbt87/wJUibpbZdNVQOt1XFkPtj/4HvY4jgYuGsxHFZGLmI9a98miGILbqSJOFzGfzAbHGajXoSfYUvwMMB9qQF8lmE85kABmGcTYnlKH69QNMAPM5bLGoWyyajkAM4C8DhRHsCvAvCo8Llc4I4gXbYC+LlUDADPAfKYRM6B0qVBCvzbTUGCGQwAbaAAagAYAZkSLuGKABqCB4TSAiBmiHE6UiJgQNV+7BgBmgBlghgaggcE0cPZg9r9EMzMt/1Kvkb3sxI5YnMvhxO009kRbADBo4CgaOG8wz+VpAJiPIiLAG0sP0MBhNTA8mHsR8Wx+CYB5AZgpOdGpflZ9WDEDDrDnpWhgYDA3spmlS6lGnoaZZEI2SZFe5qAkQ5SNTCfH0ftJ9HqfS8hD9W7zaqkioc8+ZZdtS8np2R6uH/47pL5cMIEBepcCvXPox6Bg7uf/JcNWs5pxhKxSPfqI2QGJIZ1yLEv2t3w+52tOGc1qaSdVRjMuW70H0NVly9pMdo15v7Jlwigzt2VgpxzIm1B3kYIUb/EAnFPQg0no1PAeD8yLABGiaf8qIws7yaGco0XarwEVgCYgDnA0+wmuAm6CvHyOAmawC7j1sbxf5XLwE0SEYwLpPmVLHmnXNi0s006O+qXPfgDOT4i6XHz29sP/0MRhNDAcmDkSvt3tVUZ9MEtErPPz0meBVAPMkuxeImKVT5nzBB8CzPuU3YqAdfSjJwaqS9qsj+HPEcwnS+V5GFEDDrDjuWtgODAHg/Yjt9YNwSVgNhGxAVMDzBKJFhGxE3+xf4uIuTh3i7IlYm7ClsrKfSuvGmJdi65UXLuM/bDv3GGA9o+j4UHBTAZq3PzrPCJn14zlZlpeyuD9EgEXUMnwCgIN56flhnjjL//vnFjAVYHZvYYqtEPfPPR1bVO2LNn4ZZpaGV+L5Rjua4SyXxrCQHU2LDSD/dDIOhoYGMyhwz46rt70SwMmwDW8ioiWKAh4GcwkIoFiel2RRMTubc60v4RwAGg6V7/OqAtm95qj+PSGLX+Psqn/vFyhlmlSv0Q4LfjjcTnARTSC7ShaGB7M1lC0xLHWM7c+Yr40kRKYZT390vqG/thxAnucuz3ODMxrCu6ywUxry+2bfmvaFWWfOyTQ/uNrGGB2yyDtm4PHd84hBgQDmZ4kKZY2zrM/h7AJyoDvR9cAwJzADLGOLla0Dxq9Fg0AzAAzfvEGDUADg2ng4GC+lhkN/UT0Bg1AA2tpAGAebKZcy9EoFxCBBs5HAwAzwIzLWGgAGhhMAwDzYA5BVHM+UQ18BV+tpYHTg7nzE2vudPGLulHEcPznnuVXi5f2SN9a4ka5o4wVtGNbLZ4czP4n10UHAOZ0mQkwY4AX4wNXfGl8XJJt1gdzNyKmn1i/nJ70xAUwryw85Mq4pAGNvlzG5L0umGdeWdRKSCSRYUoWZH61phMVuZ8ZE8S7r3fySYx0giMqVxIfSTIgvZ8c3kk0RJML1Z/yNeu8FEvK9m3T2eJ0vbrcLEJrs5l2G3tups2MnzDYs51hC9jiGBpYDcwh4X0v4VAjIRHDTYHFRcw250OAdMrSJmCU3MSccU2BzJXNMEuQEuDL8a7smH0u1aVyHLOjunXNlS1QVv2uXkU0EhF1++VfY9UYWDH156ufH6wcoTfqr/YXxx4DAqhjPJ2tAmZaN76dW6KgKO33Z9MDMyADwMzNLQNmApODl96vP3O5trwySbwGnT2WxMrgFsjPlE3HZmiTo3V5+nMQgSnb5WtuDxTd3iymfr/iO/7SBJTPK+vpv6CgPL5XFvbBXtDArhpYAcxxcHfBXH9nn4VZdKoGos85LMsGAh19rAJzAGaAY15qkOUKGyHrScHAs1G2HJ+SBUmb4jbsnwGzj7bNZKXFXQPzXL/ofHuMtLkUjfiud6Wj24PPpQ1hE9hkfw2sAObQqO5SRvOGYAkwXrcV8DLAXMSsIdaFZ6Vsfa6JcEMftgWzjZi1c8q6TdkcMcsEoc/zn9tgbsPWlREnt+J4LGVgCceMB6cb7DuqPlYDM8+ajZtKvUfkzBqyRMgCZon8ZHnBi8WBmeGnlj78/3Zmn4Gni2olQk6Ao7qbiehnypYXqqZ+tgZFDcxL16elTCpD31jcTJsIZbxaSmyErR0bsMex7bEumAmcRXTcuOmXIBvAEZYcPk8PCYgGWAFyekkiRaoMR1mioG0ZXQc4q2NS2fPw1OdSncXabrP++bLJ8QJ76ZuFvmozL5PYCFu3jc9P/dL2DGUke7HN8bjcsQcd6gPo5zSwPpgTcIMzWo/IzTV00X4XMS86x7UP52DQQAPQwKk1cHQwr9phgPmo62Cr+hITJnx5xRoAmK/Y+QArIkNoYEwNXBaYAVlEWdAANHABGgCYL8CJiHrGjHrgF/hlVw0cHMw//PADZmzAHhqABqCBPTQAMO9hvF1nQ5yHSAoagAZ6GgCYAWZENtAANDCYBgDmwRzSm0WxD1EWNHAdGgCYAWZES9AANDCYBgDmwRyCiOg6IiL4GX7uaQBgBpgRLUED0MBgGgCYB3NIbxbFPkRZ0MB1aABgBpgRLUED0MBgGgCYB3MIIqLriIjgZ/i5pwGAGWBGtAQNQAODaQBgHswhvVkU+xBlQQPXoQGAGWBGtAQNQAODaQBgHswhiIiuIyKCn+HnngYAZoAZ0RI0AA0MpgGAeTCH9GZR7EOUBQ1chwYAZoAZ0RI0AA0MpgGAeTCHICK6jogIfoafexoAmAFmREvQADQwmAYA5sEc0ptFsQ9RFjRwHRoAmAFmREvQADQwmAYA5sEcgojoOiIi+Bl+7mkAYAaYES1BA9DAYBoYFsx/+49/nf7rf/55+ttABvv7fz+b/ut/w99//sc/HV7Mj/55+k8q/7//dviyZ+34T9O//E/u32nacF5RFGv0f59N//5vx2930OK/Tv/y6Ph19yI97DuMPwDmBKy/Tf8eoSvwbcGJBsWlgfl0E6G1+0HtyhPdP6a/Jx8fZtAIfNYDc5gke8AHmA/rS/HpKNuTg5nFXYkQjw+KAIg8GGIEWWnbamBeCSBLxHaSPsUrBA3jv/3HPw4XBa4M5iV23e2YeTDvVu4pYUZ9QoS/1G8nBXOY9esRTQvYSzu2/XEezJtp82//mP7rf8v2VSFGx5qlFypPC9FGhiEqz/uDLRrLJFT2f/9tkgiNztUwo77qfbQ/TzBLBmMAgS9TbKjb9l+mT5tJbKHrX1o3l1uZ+EK9JZxKTTibJvu779OVULY31dHqF9Xzn//xz/EK6h/T31kHeolJl2/LrPmCfW36GfoWNPDM6Ma2KS8tJd/Ichf3qdTmZqPbZssO+/4x/V2XkWy2RCd7HhPtuFQfor9r3J4IzFGYPVFEGB3PKUHQRjQspFL8AiPTNjrW9IfKy4PWQCgODFNXjJabZeu1Z9+unSNDN4grAGMYqn4FAGebJJBE8PjjjY3MFUHF3mb/PJirttJldOzi26n7FT6T75ROq2VZH9f7Ssdke9Ex9qog1JHAy+0v+16UXW2PLyu2P00K4m9pz5wP9gSx9oV85naXgUXRPzn+SrcnAHMURxJLw/knB3Nopx0woa1VIHTB7AeAH0DZBtuXvZk2Uew10C8TfKs9vt3UznCs1MVgVuAObZGBn/tVtqNWtj7e1kPnMzCVboq6/SCuwovqqNWd68v15O/q/aJy8uRb9jFE5WKr2v5av7yNq+fV+uYnbLKHOa5sb1Vv3o4H/z/Yv3UPp9rfg7dBa228z8cHM4tHXxY2jNICc4RQugx00QgP1hT5bTMzR7EsOLcq5i6YwwBPQuQ+1Af09mVH+4ldqf0alIsEHdpXTkLlQPbQqLZ3UZ3B3m1oKSjG8jIwRTPRrtFnRVkGSnIObfv9yvWoNlTLqpWj6lmsYT8eVL0tW9baU2jwwGDmOvPySrHMpzXY1WHwvV8WA5Czdo4PZhZaHFBbAyQ3/PBOnANFrrsKo2JQ2EFL5+TJpD1h7FK2twXXtZVtgz/qYPbr1dZO1fa2YGK+jxpQEbDtRwmnDMzsi3ROhIaBcw1e3Abbh1BG/i7Xo9pQLcv6OLUl1VG7cgj1aFvn+qRfql5jM9nvgRu/ZzC6Os13ZXt3959qS6uNte+jn3T/rd12LLdW1xl/dyIwB+MzQFzEK07q7ZNjDrvNA3Ou3KqYzQCI0JHL3OqgrguwWbYBbTnAdJt5oJvj63Xlc0J7a4OF/aDK8mVX27t0QLDNLPjz+qtrUzw2XXUUddT8V/tOaa/RrwxKBciqD1t+UOfNtTOCyveL7d6ctBpgjks02Y/OhpUrhb38V/RtRmexr2by3LaMKzn+pGAmMORBYJ3KwmxAOwPFnrPf9+1BHMoN+3XUS5/zILB3+f/93+ygDf1pRc0zZROUFET8pTjbUC3BFJeYs2L2A9ja1bbdRmR7D2wBbmy/tqesnbPN/+efp7/Tj44SrEqbmXOlz6Z8u3zU6lfWpAKsBrMpU3yayy79Qcdku9n9/5j+xfRLbG/7J32z50rduWxZP086Tfaicq0mSdd7+0/sPLslW2Yb7TdWxUaXuz05mK/CQXpQi4D5Owj1KvwvPsf2BL9oPU94A8zHGCwcYemoRp47tt8BUuc5iOA3+O3QGgCYjwHm4scM9tL20E5FeQAFNHDeGgCYjwRmDJTzHijwH/x3TA0AzAAz1v2gAWhgMA0UYD7mrIC6EIVAA9AANFBqAGAebKaESEuRwiawybVpAGAGmHEZCw1AA4NpAGAezCHXFhmgv4iGoYFSAwAzwIxoCRqABgbTAMA8mEMQPZTRA2wCm1ybBgBmgBnREjQADQymAYB5MIdcW2SA/iIahgZKDQDMADOiJWgAGhhMAwDzYA5B9FBGD7AJbHJtGgCYAWZES9AANDCYBgDmwRxybZEB+otoGBooNQAwA8yIlqABaGAwDQDMgzkE0UMZPcAmsMm1aQBgBpgRLUED0MBgGgCYB3PItUUG6C+iYWig1ADADDAjWoIGoIHBNAAwD+YQRA9l9ACbwCbXpgGAGWBGtAQNQAODaQBgHswh1xYZoL+IhqGBUgMAM8CMaAkagAYG0wDAPJhDED2U0QNsAptcmwYAZoAZ0RI0AA0MpoGDgPnJze306ucHR3buL9PjP79Nv/35cfpuMKNe2+yO/iKihQYOq4H9wfz9s+nV7cvpydHhuA6YH77+Nj2/+eXIk8xhnYpBAntCA+etgUVgfvDzq+n25kkVVrTv+NHyekbvgfnS+orBu56OYFvYdh8NzIKZlilumxHxk+nl7avp2ffaCW+np+8+Tw8ffZyev/s2/UZ/ermBv/88PdzQcZX9m81EcOTzeP/X6fEjKT9GyXKeL5ui9p8+N86VMlS96vzvbr6q81T9r9+qCYn6e9ucpPZxBM4V/2ALLUADHTA/mJ79fjvd/v5setBYpqhH0gI+gi8ZOMA0LQ8kYAtww/FPfwrOYEAqkAdgSlnWYf7YDZct5Qqk9bmhrtSWSr96EXMYMPN2wcCyfoI9YA9oYDsNNMC8JDIMgHr5o6+Q4KfguNlMDFCJPCOYBcTksAxDC+ngzAB2fbw42YOZ/rfQtef646Ucvc1t8f2y//evJOyxunx8hm2gAWhgTgN1MP/4crqdu2SnY6rRdAPMEgWnpYyac8pzJeJeAma7BJKXI+Rc3i8TRCVaJmNtB+ZTPI1Ssxu+mxM69kMj56SBOpgZWv1L9vYjciVcy4hZLy9owdQi5tp34RwfAc9B1bRjZzD37XJOzkdbtfbwGXoYRwMdMIdGVi/Zu4/IOTD7pYtuxBxv/El0Lcsg6n8tHg/mcOPPLqPo48Ma9LdJImizL4K6KNMAPEK58YRKrTx8N47Y4Qv44lw0MAtm6oi/yef/t50NEW5+qsKBcAbMVJZdkmhF13Ht2kPbPJVByxnu/DhRpPb58+PNyrRfLX3gcTkMbKt12AP2WEcDi8BsjV97RE43zkXMJuLUx+3/ecnShG37/nWiPNgQGoAG1tbADmCec8qxwBwic/sUxlzbsH9tQaF8aAwa2F8D5wVmvwyhlhkghv3FABvChtDAGBpYAcxjdAwCgx+gAWjgXDUAMK+4Bn6uokC7ATRo4LQa+P8lT/mnFLlmYgAAAABJRU5ErkJggg==;" vertex="1" parent="1">
          <mxGeometry x="170" y="331" width="358" height="438" as="geometry" />
        </mxCell>
        <mxCell id="tIYy_J4YZG42mCBuG7aG-8" style="edgeStyle=orthogonalEdgeStyle;rounded=0;orthogonalLoop=1;jettySize=auto;html=1;strokeColor=#FF0000;strokeWidth=2;" edge="1" parent="1" source="tIYy_J4YZG42mCBuG7aG-2" target="tIYy_J4YZG42mCBuG7aG-7">
          <mxGeometry relative="1" as="geometry">
            <Array as="points">
              <mxPoint x="560" y="437" />
              <mxPoint x="560" y="385" />
            </Array>
          </mxGeometry>
        </mxCell>
        <mxCell id="tIYy_J4YZG42mCBuG7aG-2" value="" style="rounded=0;whiteSpace=wrap;html=1;fillColor=none;strokeColor=#FF0000;strokeWidth=2;" vertex="1" parent="1">
          <mxGeometry x="184" y="384" width="286" height="106" as="geometry" />
        </mxCell>
        <mxCell id="tIYy_J4YZG42mCBuG7aG-13" style="edgeStyle=orthogonalEdgeStyle;rounded=0;orthogonalLoop=1;jettySize=auto;html=1;entryX=0;entryY=0.5;entryDx=0;entryDy=0;strokeWidth=2;strokeColor=#FF0000;" edge="1" parent="1" source="tIYy_J4YZG42mCBuG7aG-4" target="tIYy_J4YZG42mCBuG7aG-10">
          <mxGeometry relative="1" as="geometry">
            <Array as="points">
              <mxPoint x="560" y="616" />
              <mxPoint x="560" y="495" />
            </Array>
          </mxGeometry>
        </mxCell>
        <mxCell id="tIYy_J4YZG42mCBuG7aG-4" value="" style="rounded=0;whiteSpace=wrap;html=1;fillColor=none;strokeColor=#FF0000;strokeWidth=2;" vertex="1" parent="1">
          <mxGeometry x="184" y="536" width="286" height="160" as="geometry" />
        </mxCell>
        <mxCell id="tIYy_J4YZG42mCBuG7aG-14" style="edgeStyle=orthogonalEdgeStyle;rounded=0;orthogonalLoop=1;jettySize=auto;html=1;strokeColor=#FF0000;strokeWidth=2;" edge="1" parent="1" source="tIYy_J4YZG42mCBuG7aG-6" target="tIYy_J4YZG42mCBuG7aG-11">
          <mxGeometry relative="1" as="geometry">
            <Array as="points">
              <mxPoint x="560" y="722" />
              <mxPoint x="560" y="687" />
            </Array>
          </mxGeometry>
        </mxCell>
        <mxCell id="tIYy_J4YZG42mCBuG7aG-6" value="" style="rounded=0;whiteSpace=wrap;html=1;fillColor=none;strokeColor=#FF0000;strokeWidth=2;" vertex="1" parent="1">
          <mxGeometry x="184" y="712" width="286" height="20" as="geometry" />
        </mxCell>
        <mxCell id="tIYy_J4YZG42mCBuG7aG-7" value=" Project name, version etc&lt;div style=&quot;font-size: 14px;&quot;&gt;Output file type: JAR, WAR, …&lt;/div&gt;" style="text;html=1;align=center;verticalAlign=middle;whiteSpace=wrap;rounded=0;fontStyle=1;fontSize=14;" vertex="1" parent="1">
          <mxGeometry x="615" y="360" width="220" height="50" as="geometry" />
        </mxCell>
        <mxCell id="tIYy_J4YZG42mCBuG7aG-10" value="&amp;nbsp;List of projects we depend on Spring, Hibernate, etc…" style="text;html=1;align=center;verticalAlign=middle;whiteSpace=wrap;rounded=0;fontStyle=1;fontSize=14;" vertex="1" parent="1">
          <mxGeometry x="615" y="470" width="220" height="50" as="geometry" />
        </mxCell>
        <mxCell id="tIYy_J4YZG42mCBuG7aG-11" value="&amp;nbsp;Additional custom tasks to run: Generate JUnit test reports etc…" style="text;html=1;align=center;verticalAlign=middle;whiteSpace=wrap;rounded=0;fontStyle=1;fontSize=14;" vertex="1" parent="1">
          <mxGeometry x="600" y="662" width="250" height="50" as="geometry" />
        </mxCell>
      </root>
    </mxGraphModel>
  </diagram>
</mxfile>
